<svg xmlns="http://www.w3.org/2000/svg" xmlns:svg="http://www.w3.org/2000/svg" xmlns:xlink="http://www.w3.org/1999/xlink" version="1.0" height="1210.0000000000002pt" width="1064pt" viewBox="294.99999999999994 96.99999999999997 1072 1216.0000000000002" ><defs><style type="text/css">
            @font-face {
                font-family: 'lt_regular';
                src: url('https://app.creately.com/diagram/assets/fonts/lato/lt-regular-webfont.woff2') format('woff2'),
                    url('https://app.creately.com/diagram/assets/fonts/lato/lt-regular-webfont.woff') format('woff');
                font-weight: normal;
                font-style: normal;
            }
            @font-face {
                font-family: 'noto_regular';
                src: url('https://app.creately.com/diagram/assets/fonts/noto/noto-regular.woff') format('woff'),
                     url('https://app.creately.com/diagram/assets/fonts/noto/noto-regular.woff2') format('woff2');
                font-weight: normal;
                font-style: normal;
            }
        p {
            margin: 0;
        }
        </style></defs><defs><style>
            span{ display: inline-block; }
        </style></defs><g id="ttwreywC90C"><g transform="translate(299.99999999999994 99.99999999999997)"><rect x="0" y="0" width="103.00000000000003" height="29" fill="rgb(0,174,181)" stroke="#00aeb5" stroke-width="2" stroke-linecap="round" stroke-linejoin="round" stroke-dasharray="0 0"/><path d="M 51.500000000000014,29 L 51.500000000000014,1130.0000000000002" fill="rgb(0,174,181)" stroke="#00aeb5" stroke-width="2" stroke-linecap="round" stroke-linejoin="round" stroke-dasharray="3 3"/><rect x="0" y="0" width="103.00000000000003" height="1130.0000000000002" fill="rgba(255,255,255,0.01)" stroke="rgba(255,255,255,0.01)" stroke-width="2" stroke-linecap="round" stroke-linejoin="round" stroke-dasharray="3 3"/></g><g transform="translate(332.5, 104.99999999999997) rotate(0, 19, 0)" width="38" height="19"><text text-decoration="none" x="0.5" fill="#ffffff" font-size="10pt" font-family="lt_regular"  y="15">Admin</text><text text-decoration="none" x="37.5" fill="#4b4b4b" font-size="10pt" font-family="noto_regular"  y="15"></text></g></g><g id="XJAhoAsHPyZ"><g transform="translate(454.49999999999983 100)"><rect x="0" y="0" width="115.5000000000002" height="29" fill="rgb(0,174,181)" stroke="#00aeb5" stroke-width="2" stroke-linecap="round" stroke-linejoin="round" stroke-dasharray="0 0"/><path d="M 57.7500000000001,29 L 57.7500000000001,1210.0000000000002" fill="rgb(0,174,181)" stroke="#00aeb5" stroke-width="2" stroke-linecap="round" stroke-linejoin="round" stroke-dasharray="3 3"/><rect x="0" y="0" width="115.5000000000002" height="1210.0000000000002" fill="rgba(255,255,255,0.01)" stroke="rgba(255,255,255,0.01)" stroke-width="2" stroke-linecap="round" stroke-linejoin="round" stroke-dasharray="3 3"/></g><g transform="translate(489.2499999999999, 105) rotate(0, 23, 0)" width="46" height="19"><text text-decoration="none" x="0.5" fill="#ffffff" font-size="10pt" font-family="lt_regular"  y="15">Student</text><text text-decoration="none" x="45.5" fill="#4b4b4b" font-size="10pt" font-family="noto_regular"  y="15"></text></g></g><g id="hQuw7feIJwX"><g transform="translate(608.9999999999998 100)"><rect x="0" y="0" width="101.00000000000011" height="29" fill="rgb(0,174,181)" stroke="#00aeb5" stroke-width="2" stroke-linecap="round" stroke-linejoin="round" stroke-dasharray="0 0"/><path d="M 50.50000000000006,29 L 50.50000000000006,1200" fill="rgb(0,174,181)" stroke="#00aeb5" stroke-width="2" stroke-linecap="round" stroke-linejoin="round" stroke-dasharray="3 3"/><rect x="0" y="0" width="101.00000000000011" height="1200" fill="rgba(255,255,255,0.01)" stroke="rgba(255,255,255,0.01)" stroke-width="2" stroke-linecap="round" stroke-linejoin="round" stroke-dasharray="3 3"/></g><g transform="translate(636.4999999999998, 105) rotate(0, 23, 0)" width="46" height="19"><text text-decoration="none" x="0" fill="#ffffff" font-size="10pt" font-family="lt_regular"  y="15">Teacher</text><text text-decoration="none" x="46" fill="#4b4b4b" font-size="10pt" font-family="noto_regular"  y="15"></text></g></g><g id="q6f8ZYARkca"><g transform="translate(763.5 99.99999999999999)"><rect x="0" y="0" width="103.00000000000003" height="29" fill="rgb(0,174,181)" stroke="#00aeb5" stroke-width="2" stroke-linecap="round" stroke-linejoin="round" stroke-dasharray="0 0"/><path d="M 51.500000000000014,29 L 51.500000000000014,1130.0000000000002" fill="rgb(0,174,181)" stroke="#00aeb5" stroke-width="2" stroke-linecap="round" stroke-linejoin="round" stroke-dasharray="3 3"/><rect x="0" y="0" width="103.00000000000003" height="1130.0000000000002" fill="rgba(255,255,255,0.01)" stroke="rgba(255,255,255,0.01)" stroke-width="2" stroke-linecap="round" stroke-linejoin="round" stroke-dasharray="3 3"/></g><g transform="translate(786, 104.99999999999999) rotate(0, 29, 0)" width="58" height="19"><text text-decoration="none" x="0" fill="#ffffff" font-size="10pt" font-family="lt_regular"  y="15">TestPaper</text><text text-decoration="none" x="59" fill="#4b4b4b" font-size="10pt" font-family="noto_regular"  y="15"></text></g></g><g id="3tagTRvDok2"><g transform="translate(918.0000000000002 99.99999999999999)"><rect x="0" y="0" width="103.00000000000003" height="29" fill="rgb(0,174,181)" stroke="#00aeb5" stroke-width="2" stroke-linecap="round" stroke-linejoin="round" stroke-dasharray="0 0"/><path d="M 51.500000000000014,29 L 51.500000000000014,1130.0000000000002" fill="rgb(0,174,181)" stroke="#00aeb5" stroke-width="2" stroke-linecap="round" stroke-linejoin="round" stroke-dasharray="3 3"/><rect x="0" y="0" width="103.00000000000003" height="1130.0000000000002" fill="rgba(255,255,255,0.01)" stroke="rgba(255,255,255,0.01)" stroke-width="2" stroke-linecap="round" stroke-linejoin="round" stroke-dasharray="3 3"/></g><g transform="translate(954.5000000000002, 104.99999999999999) rotate(0, 15, 0)" width="30" height="19"><text text-decoration="none" x="0" fill="#ffffff" font-size="10pt" font-family="lt_regular"  y="15">Class</text><text text-decoration="none" x="30" fill="#4b4b4b" font-size="10pt" font-family="noto_regular"  y="15"></text></g></g><g id="q5ovADenBCG"><g transform="translate(1072.5 99.99999999999999)"><rect x="0" y="0" width="103.00000000000003" height="29" fill="rgb(0,174,181)" stroke="#00aeb5" stroke-width="2" stroke-linecap="round" stroke-linejoin="round" stroke-dasharray="0 0"/><path d="M 51.500000000000014,29 L 51.500000000000014,1130.0000000000002" fill="rgb(0,174,181)" stroke="#00aeb5" stroke-width="2" stroke-linecap="round" stroke-linejoin="round" stroke-dasharray="3 3"/><rect x="0" y="0" width="103.00000000000003" height="1130.0000000000002" fill="rgba(255,255,255,0.01)" stroke="rgba(255,255,255,0.01)" stroke-width="2" stroke-linecap="round" stroke-linejoin="round" stroke-dasharray="3 3"/></g><g transform="translate(1102.5, 104.99999999999999) rotate(0, 21.5, 0)" width="43" height="19"><text text-decoration="none" x="0.5" fill="#ffffff" font-size="10pt" font-family="lt_regular"  y="15">Subject</text><text text-decoration="none" x="42.5" fill="#4b4b4b" font-size="10pt" font-family="noto_regular"  y="15"></text></g></g><g id="fslz9rIFlS4"><g transform="translate(1227 99.99999999999999)"><rect x="0" y="0" width="103.00000000000003" height="29" fill="rgb(0,174,181)" stroke="#00aeb5" stroke-width="2" stroke-linecap="round" stroke-linejoin="round" stroke-dasharray="0 0"/><path d="M 51.500000000000014,29 L 51.500000000000014,1130.0000000000002" fill="rgb(0,174,181)" stroke="#00aeb5" stroke-width="2" stroke-linecap="round" stroke-linejoin="round" stroke-dasharray="3 3"/><rect x="0" y="0" width="103.00000000000003" height="1130.0000000000002" fill="rgba(255,255,255,0.01)" stroke="rgba(255,255,255,0.01)" stroke-width="2" stroke-linecap="round" stroke-linejoin="round" stroke-dasharray="3 3"/></g><g transform="translate(1255, 104.99999999999999) rotate(0, 23.5, 0)" width="47" height="19"><text text-decoration="none" x="0.5" fill="#ffffff" font-size="10pt" font-family="lt_regular"  y="15">Division</text><text text-decoration="none" x="46.5" fill="#4b4b4b" font-size="10pt" font-family="noto_regular"  y="15"></text></g></g><g id="LNt0vNMOHdm"><g transform="translate(489.99999999999994 170)"><rect x="0" y="0" width="20" height="80" fill="rgb(93,161,87)" stroke="#5da157" stroke-width="2" stroke-linecap="round" stroke-linejoin="round" stroke-dasharray="0 0"/></g></g><g id="wLBVw41aigS"><mask id="8e88a" x="336" y="183" width="168" height="31" maskUnits="userSpaceOnUse"><rect x="336" y="183" width="168" height="31" fill="white" />undefined<rect x="381.96875" y="177.17075892857142" width="92" height="43" fill="black" /></mask><g mask="url(#8e88a)"><path d="M 490,200 L 350,197" fill="none" stroke="#7E7E7E" stroke-width="2" stroke-linecap="round" stroke-linejoin="round"/></g>undefined<g transform="translate(384.96875, 180.17075892857142)" width="86" height="37"><text text-decoration="none" x="1" fill="rgb(75, 75, 75)" font-size="10pt" font-family="lt_regular"  y="14">2:&#160;</text><text text-decoration="none" x="15" fill="rgb(75, 75, 75)" font-size="10pt" font-family="lt_regular"  y="14">Add/Modify</text><text text-decoration="none" x="85" fill="rgb(75, 75, 75)" font-size="10pt" font-family="lt_regular"  y="14"></text><text text-decoration="none" x="16" fill="rgb(75, 75, 75)" font-size="10pt" font-family="lt_regular"  y="33">Student()</text><text text-decoration="none" x="70" fill="#4b4b4b" font-size="10pt" font-family="noto_regular"  y="33"></text></g></g><g id="p9FneS52L93"><g transform="translate(800 170.00000000000003)"><rect x="0" y="0" width="20" height="80" fill="rgb(93,161,87)" stroke="#5da157" stroke-width="2" stroke-linecap="round" stroke-linejoin="round" stroke-dasharray="0 0"/></g></g><g id="biVWvseMxdF"><g transform="translate(649.9999999999998 320)"><rect x="0" y="0" width="20" height="80" fill="rgb(93,161,87)" stroke="#5da157" stroke-width="2" stroke-linecap="round" stroke-linejoin="round" stroke-dasharray="0 0"/></g></g><g id="zOug0Xpc2Ts"><g transform="translate(950.0000000000002 320)"><rect x="0" y="0" width="20" height="80" fill="rgb(93,161,87)" stroke="#5da157" stroke-width="2" stroke-linecap="round" stroke-linejoin="round" stroke-dasharray="0 0"/></g></g><g id="mBNIjoDByel"><g transform="translate(1110 320)"><rect x="0" y="0" width="20" height="80" fill="rgb(93,161,87)" stroke="#5da157" stroke-width="2" stroke-linecap="round" stroke-linejoin="round" stroke-dasharray="0 0"/></g></g><g id="h0hg7pySLLK"><g transform="translate(1270 320)"><rect x="0" y="0" width="20" height="80" fill="rgb(93,161,87)" stroke="#5da157" stroke-width="2" stroke-linecap="round" stroke-linejoin="round" stroke-dasharray="0 0"/></g></g><g id="LjDuuLozWZM"><g transform="translate(950 460)"><rect x="0" y="0" width="20" height="80" fill="rgb(93,161,87)" stroke="#5da157" stroke-width="2" stroke-linecap="round" stroke-linejoin="round" stroke-dasharray="0 0"/></g></g><g id="RwsaWyq7DPt"><g transform="translate(1110 610)"><rect x="0" y="0" width="20" height="80" fill="rgb(93,161,87)" stroke="#5da157" stroke-width="2" stroke-linecap="round" stroke-linejoin="round" stroke-dasharray="0 0"/></g></g><g id="1kEHiQhxO3f"><g transform="translate(1270 740)"><rect x="0" y="0" width="20" height="80" fill="rgb(93,161,87)" stroke="#5da157" stroke-width="2" stroke-linecap="round" stroke-linejoin="round" stroke-dasharray="0 0"/></g></g><g id="1SPbGBfPv0x"><g transform="translate(810 870)"><rect x="0" y="0" width="20" height="80" fill="rgb(93,161,87)" stroke="#5da157" stroke-width="2" stroke-linecap="round" stroke-linejoin="round" stroke-dasharray="0 0"/></g></g><g id="TxeeDqgyIyI"><g transform="translate(500.00000000000006 1010)"><rect x="0" y="0" width="20" height="80" fill="rgb(93,161,87)" stroke="#5da157" stroke-width="2" stroke-linecap="round" stroke-linejoin="round" stroke-dasharray="0 0"/></g></g><g id="whVgasvO6Qs"><g transform="translate(500.0000000000003 1140)"><rect x="0" y="0" width="20" height="80" fill="rgb(93,161,87)" stroke="#5da157" stroke-width="2" stroke-linecap="round" stroke-linejoin="round" stroke-dasharray="0 0"/></g></g><g id="5JC132Tm8jo"><mask id="d115d" x="646" y="165" width="168" height="29" maskUnits="userSpaceOnUse"><rect x="646" y="165" width="168" height="29" fill="white" /><rect x="675.4357275563134" y="157.86382662540223" width="71" height="43" fill="black" /></mask><g mask="url(#d115d)"><path d="M 800,180 L 660,179" fill="none" stroke="#7E7E7E" stroke-width="2" stroke-linecap="round" stroke-linejoin="round"/><path d="M 800,180 L 791.3262608958827,174.21699760648627 L 791.2825603252412,185.71691457401806 Z" fill="rgb(126,126,126)" stroke="#7E7E7E" stroke-width="2" stroke-linecap="round" stroke-linejoin="round"/></g><g transform="translate(678.4357275563134, 160.86382662540223)" width="65" height="37"><text text-decoration="none" x="3" fill="#4b4b4b" font-size="10pt" font-family="lt_regular"  y="14">1:&#160;</text><text text-decoration="none" x="17" fill="#4b4b4b" font-size="10pt" font-family="lt_regular"  y="14">Prepare</text><text text-decoration="none" x="62" fill="#4b4b4b" font-size="10pt" font-family="lt_regular"  y="14"></text><text text-decoration="none" x="0" fill="#4b4b4b" font-size="10pt" font-family="lt_regular"  y="33">TestPaper()</text><text text-decoration="none" x="65" fill="#4b4b4b" font-size="10pt" font-family="noto_regular"  y="33"></text></g></g><g id="zUstIiGgE2R"><mask id="b9696" x="648" y="226" width="166" height="28" maskUnits="userSpaceOnUse"><rect x="648" y="226" width="166" height="28" fill="white" /><rect x="689.1870600886723" y="227.51131481634943" width="56" height="25" fill="black" /></mask><g mask="url(#b9696)"><path d="M 800,240 L 740.8789062499999,240.00000000000003 Q 740.7578124999998,240.00000000000003 731,240 Q 721.0008208843069,240.0120967388315 720.8789064601795,240.0120717431293 L 662,240" fill="none" stroke="#F68C27" stroke-width="2" stroke-linecap="round" stroke-linejoin="round" stroke-dasharray="3 3"/><path d="M 662,240 L 670.695652173913,245.75 L 670.695652173913,234.25 Z" fill="rgb(246,140,39)" stroke="#F68C27" stroke-width="2" stroke-linecap="round" stroke-linejoin="round"/></g><g transform="translate(692.1870600886723, 230.51131481634943)" width="50" height="19"><text text-decoration="none" x="0" fill="#F68C27" font-size="10pt" font-family="lt_regular"  y="15">6:&#160;</text><text text-decoration="none" x="14" fill="#F68C27" font-size="10pt" font-family="lt_regular"  y="15">return</text><text text-decoration="none" x="50" fill="#4b4b4b" font-size="10pt" font-family="noto_regular"  y="15"></text></g></g><g id="cwHXY3KmvoH"><mask id="c5f7d" x="334" y="225" width="170" height="29" maskUnits="userSpaceOnUse"><rect x="334" y="225" width="170" height="29" fill="white" /><rect x="384.2027362856593" y="226.95213194567367" width="56" height="25" fill="black" /></mask><g mask="url(#c5f7d)"><path d="M 490,240 L 348,239" fill="none" stroke="#F68C27" stroke-width="2" stroke-linecap="round" stroke-linejoin="round" stroke-dasharray="3 3"/><path d="M 348,239 L 356.6549446050452,244.81109289318945 L 356.73592851243205,233.31137804425757 Z" fill="rgb(246,140,39)" stroke="#F68C27" stroke-width="2" stroke-linecap="round" stroke-linejoin="round"/></g><g transform="translate(387.2027362856593, 229.95213194567367)" width="50" height="19"><text text-decoration="none" x="0" fill="#F68C27" font-size="10pt" font-family="lt_regular"  y="15">7:&#160;</text><text text-decoration="none" x="14" fill="#F68C27" font-size="10pt" font-family="lt_regular"  y="15">return</text><text text-decoration="none" x="50" fill="#4b4b4b" font-size="10pt" font-family="noto_regular"  y="15"></text></g></g><g id="b6BgDRHZjeN"><mask id="b6f05" x="337" y="314" width="327" height="30" maskUnits="userSpaceOnUse"><rect x="337" y="314" width="327" height="30" fill="white" /><rect x="452.5" y="316.5" width="96" height="25" fill="black" /></mask><g mask="url(#b6f05)"><path d="M 650,330 L 351,328" fill="none" stroke="#7E7E7E" stroke-width="2" stroke-linecap="round" stroke-linejoin="round"/><path d="M 650,330 L 641.343003029052,324.1919650332771 L 641.2660816729261,335.691707774094 Z" fill="rgb(126,126,126)" stroke="#7E7E7E" stroke-width="2" stroke-linecap="round" stroke-linejoin="round"/></g><g transform="translate(455.5, 319.5)" width="90" height="19"><text text-decoration="none" x="39.5" fill="#4b4b4b" font-size="10pt" font-family="lt_regular"  y="14">8:&#160;</text><text text-decoration="none" x="6.5" fill="#4b4b4b" font-size="10pt" font-family="lt_regular"  y="33">HireTeacher()</text><text text-decoration="none" x="83.5" fill="#4b4b4b" font-size="10pt" font-family="noto_regular"  y="33"></text></g></g><g id="LWaYC1Fg3SK"><mask id="fc0d8" x="956" y="261" width="66" height="83" maskUnits="userSpaceOnUse"><rect x="956" y="261" width="66" height="83" fill="white" /><rect x="958" y="289.9964812426665" width="100" height="25" fill="black" /></mask><g mask="url(#fc0d8)"><path d="M 970,275 L 970,280.3656845092775 L 989,280 L 1008,280.3656845092775 L 1008,305 L 1008,330 L 970,330" fill="none" stroke="#7E7E7E" stroke-width="2" stroke-linecap="round" stroke-linejoin="round"/><path d="M 970,330 L 978.695652173913,335.75 L 978.695652173913,324.25 Z" fill="rgb(126,126,126)" stroke="#7E7E7E" stroke-width="2" stroke-linecap="round" stroke-linejoin="round"/></g><g transform="translate(961, 292.9964812426665)" width="94" height="19"><text text-decoration="none" x="1" fill="#4b4b4b" font-size="10pt" font-family="lt_regular"  y="15">5:&#160;</text><text text-decoration="none" x="15" fill="#4b4b4b" font-size="10pt" font-family="lt_regular"  y="15">DisplayClass()</text><text text-decoration="none" x="93" fill="#4b4b4b" font-size="10pt" font-family="noto_regular"  y="15"></text></g></g><g id="fLYarXre3kC"><mask id="4e60f" x="1112" y="268" width="59" height="76" maskUnits="userSpaceOnUse"><rect x="1112" y="268" width="59" height="76" fill="white" /><rect x="1099" y="291.68903132482995" width="116" height="25" fill="black" /></mask><g mask="url(#4e60f)"><path d="M 1126,282 L 1157,282 L 1157,295 L 1157,307 L 1157,307 L 1157.1875,307 L 1157,319 L 1157.1875,330 L 1130,330" fill="none" stroke="#7E7E7E" stroke-width="2" stroke-linecap="round" stroke-linejoin="round"/><path d="M 1130,330 L 1138.695652173913,335.75 L 1138.695652173913,324.25 Z" fill="rgb(126,126,126)" stroke="#7E7E7E" stroke-width="2" stroke-linecap="round" stroke-linejoin="round"/></g><g transform="translate(1102, 294.68903132482995)" width="110" height="19"><text text-decoration="none" x="1.5" fill="#4b4b4b" font-size="10pt" font-family="lt_regular"  y="15">3:DisplaySubjects()</text><text text-decoration="none" x="108.5" fill="#4b4b4b" font-size="10pt" font-family="noto_regular"  y="15"></text></g></g><g id="jPxSr5dxoEx"><mask id="fdfdf" x="1266" y="268" width="58" height="76" maskUnits="userSpaceOnUse"><rect x="1266" y="268" width="58" height="76" fill="white" /><rect x="1253" y="288.48937259398656" width="114" height="25" fill="black" /></mask><g mask="url(#fdfdf)"><path d="M 1280,282 L 1308.4375,282 L 1308,291 L 1308.4375,300 L 1309,300 L 1310,300 L 1310,315 L 1310,330 L 1290,330" fill="none" stroke="#7E7E7E" stroke-width="2" stroke-linecap="round" stroke-linejoin="round"/><path d="M 1290,330 L 1298.695652173913,335.75 L 1298.695652173913,324.25 Z" fill="rgb(126,126,126)" stroke="#7E7E7E" stroke-width="2" stroke-linecap="round" stroke-linejoin="round"/></g><g transform="translate(1256, 291.48937259398656)" width="108" height="19"><text text-decoration="none" x="1.5" fill="#4b4b4b" font-size="10pt" font-family="lt_regular"  y="15">4:DisplayDivision()</text><text text-decoration="none" x="106.5" fill="#4b4b4b" font-size="10pt" font-family="noto_regular"  y="15"></text></g></g><g id="hLcp0vWDdva"><mask id="e33bb" x="336" y="373" width="328" height="31" maskUnits="userSpaceOnUse"><rect x="336" y="373" width="328" height="31" fill="white" /><rect x="472" y="376" width="56" height="25" fill="black" /></mask><g mask="url(#e33bb)"><path d="M 650,390 L 350,387" fill="none" stroke="#F68C27" stroke-width="2" stroke-linecap="round" stroke-linejoin="round" stroke-dasharray="3 3"/><path d="M 350,387 L 358.6377202986947,392.8366646957998 L 358.7527145491259,381.3372396526784 Z" fill="rgb(246,140,39)" stroke="#F68C27" stroke-width="2" stroke-linecap="round" stroke-linejoin="round"/></g><g transform="translate(475, 379)" width="50" height="19"><text text-decoration="none" x="0" fill="#F68C27" font-size="10pt" font-family="lt_regular"  y="15">9:&#160;</text><text text-decoration="none" x="14" fill="#F68C27" font-size="10pt" font-family="lt_regular"  y="15">return</text><text text-decoration="none" x="50" fill="#4b4b4b" font-size="10pt" font-family="noto_regular"  y="15"></text></g></g><g id="TMtTMDkrzZ7"><mask id="2104e" x="334" y="453" width="630" height="31" maskUnits="userSpaceOnUse"><rect x="334" y="453" width="630" height="31" fill="white" /><rect x="565.5" y="456" width="167" height="25" fill="black" /></mask><g mask="url(#2104e)"><path d="M 950,470 L 348,467" fill="none" stroke="#7E7E7E" stroke-width="2" stroke-linecap="round" stroke-linejoin="round"/><path d="M 950,470 L 941.333109927949,464.2067381201381 L 941.2758016694462,475.70659532636057 Z" fill="rgb(126,126,126)" stroke="#7E7E7E" stroke-width="2" stroke-linecap="round" stroke-linejoin="round"/></g><g transform="translate(568.5, 459)" width="161" height="19"><text text-decoration="none" x="1.5" fill="#4b4b4b" font-size="10pt" font-family="lt_regular"  y="15">10:&#160;</text><text text-decoration="none" x="23.5" fill="#4b4b4b" font-size="10pt" font-family="lt_regular"  y="15">AddClass/ModifyClass()</text><text text-decoration="none" x="159.5" fill="#4b4b4b" font-size="10pt" font-family="noto_regular"  y="15"></text></g></g><g id="pl8OQUetAoF"><mask id="49bb3" x="334" y="515" width="630" height="29" maskUnits="userSpaceOnUse"><rect x="334" y="515" width="630" height="29" fill="white" /><rect x="595.1889928755356" y="516.9637690911554" width="64" height="25" fill="black" /></mask><g mask="url(#49bb3)"><path d="M 950,530 L 348,529" fill="none" stroke="#F68C27" stroke-width="2" stroke-linecap="round" stroke-linejoin="round" stroke-dasharray="3 3"/><path d="M 348,529 L 356.686088694919,534.7644366518922 L 356.7051916585964,523.2644525181302 Z" fill="rgb(246,140,39)" stroke="#F68C27" stroke-width="2" stroke-linecap="round" stroke-linejoin="round"/></g><g transform="translate(598.1889928755356, 519.9637690911554)" width="58" height="19"><text text-decoration="none" x="0" fill="#F68C27" font-size="10pt" font-family="lt_regular"  y="15">11:&#160;</text><text text-decoration="none" x="22" fill="#F68C27" font-size="10pt" font-family="lt_regular"  y="15">return</text><text text-decoration="none" x="58" fill="#4b4b4b" font-size="10pt" font-family="noto_regular"  y="15"></text></g></g><g id="v36DCTVoLt1"><mask id="876b3" x="334" y="606" width="790" height="28" maskUnits="userSpaceOnUse"><rect x="334" y="606" width="790" height="28" fill="white" /><rect x="632.5" y="607.5" width="193" height="25" fill="black" /></mask><g mask="url(#876b3)"><path d="M 1110,620 L 348,620" fill="none" stroke="#7E7E7E" stroke-width="2" stroke-linecap="round" stroke-linejoin="round"/><path d="M 1110,620 L 1101.304347826087,614.25 L 1101.304347826087,625.75 Z" fill="rgb(126,126,126)" stroke="#7E7E7E" stroke-width="2" stroke-linecap="round" stroke-linejoin="round"/></g><g transform="translate(635.5, 610.5)" width="187" height="19"><text text-decoration="none" x="2.5" fill="#4b4b4b" font-size="10pt" font-family="lt_regular"  y="15">12:&#160;</text><text text-decoration="none" x="24.5" fill="#4b4b4b" font-size="10pt" font-family="lt_regular"  y="15">AddSubject/ModifySubject()</text><text text-decoration="none" x="184.5" fill="#4b4b4b" font-size="10pt" font-family="noto_regular"  y="15"></text></g></g><g id="ukPFqCs1Q9s"><mask id="e2023" x="338" y="644" width="786" height="30" maskUnits="userSpaceOnUse"><rect x="338" y="644" width="786" height="30" fill="white" /><rect x="699" y="646.5" width="64" height="25" fill="black" /></mask><g mask="url(#e2023)"><path d="M 1110,660 L 352,658" fill="none" stroke="#F68C27" stroke-width="2" stroke-linecap="round" stroke-linejoin="round" stroke-dasharray="3 3"/><path d="M 352,658 L 360.67950765135214,663.774340971903 L 360.71172843439473,652.274386110203 Z" fill="rgb(246,140,39)" stroke="#F68C27" stroke-width="2" stroke-linecap="round" stroke-linejoin="round"/></g><g transform="translate(702, 649.5)" width="58" height="19"><text text-decoration="none" x="0" fill="#F68C27" font-size="10pt" font-family="lt_regular"  y="15">13:&#160;</text><text text-decoration="none" x="22" fill="#F68C27" font-size="10pt" font-family="lt_regular"  y="15">return</text><text text-decoration="none" x="58" fill="#4b4b4b" font-size="10pt" font-family="noto_regular"  y="15"></text></g></g><g id="ZcyzypVARqc"><mask id="47fe4" x="337" y="736" width="947" height="30" maskUnits="userSpaceOnUse"><rect x="337" y="736" width="947" height="30" fill="white" /><rect x="704" y="738.5" width="213" height="25" fill="black" /></mask><g mask="url(#47fe4)"><path d="M 1270,750 L 351,752" fill="none" stroke="#7E7E7E" stroke-width="2" stroke-linecap="round" stroke-linejoin="round"/><path d="M 1270,750 L 1261.2918548460295,744.2689377331023 L 1261.316881990245,755.7689105001158 Z" fill="rgb(126,126,126)" stroke="#7E7E7E" stroke-width="2" stroke-linecap="round" stroke-linejoin="round"/></g><g transform="translate(707, 741.5)" width="207" height="19"><text text-decoration="none" x="2.5" fill="#4b4b4b" font-size="10pt" font-family="lt_regular"  y="15">14:&#160;</text><text text-decoration="none" x="24.5" fill="#4b4b4b" font-size="10pt" font-family="lt_regular"  y="15">AddDivisions/ModifyDivisions()</text><text text-decoration="none" x="204.5" fill="#4b4b4b" font-size="10pt" font-family="noto_regular"  y="15"></text></g></g><g id="C0btsFaXjKv"><g><path d="M 1270,810 L 350,810" fill="none" stroke="#F68C27" stroke-width="2" stroke-linecap="round" stroke-linejoin="round" stroke-dasharray="3 3"/><path d="M 350,810 L 358.69565217391306,815.75 L 358.69565217391306,804.25 Z" fill="rgb(246,140,39)" stroke="#F68C27" stroke-width="2" stroke-linecap="round" stroke-linejoin="round"/></g></g><g id="wjC7F7OLp9g"><mask id="b9fc0" x="494" y="866" width="330" height="30" maskUnits="userSpaceOnUse"><rect x="494" y="866" width="330" height="30" fill="white" /><rect x="500.92970684517604" y="869.2156973056611" width="100" height="25" fill="black" /><rect x="672.6812417982503" y="868.1974752198792" width="64" height="25" fill="black" /></mask><g mask="url(#b9fc0)"><path d="M 810,880 L 508,882" fill="none" stroke="#7E7E7E" stroke-width="2" stroke-linecap="round" stroke-linejoin="round"/><path d="M 810,880 L 801.2664598703915,874.3077119245249 L 801.3426171407648,885.8074597508979 Z" fill="rgb(126,126,126)" stroke="#7E7E7E" stroke-width="2" stroke-linecap="round" stroke-linejoin="round"/></g><g transform="translate(503.92970684517604, 872.2156973056611)" width="94" height="19"><text text-decoration="none" x="1" fill="#4b4b4b" font-size="10pt" font-family="lt_regular"  y="15">16:&#160;</text><text text-decoration="none" x="23" fill="#4b4b4b" font-size="10pt" font-family="lt_regular"  y="15">WriteExam()</text><text text-decoration="none" x="93" fill="#4b4b4b" font-size="10pt" font-family="noto_regular"  y="15"></text></g><g transform="translate(675.6812417982503, 871.1974752198792)" width="58" height="19"><text text-decoration="none" x="0" fill="#4b4b4b" font-size="10pt" font-family="lt_regular"  y="15">15:&#160;</text><text text-decoration="none" x="22" fill="#4b4b4b" font-size="10pt" font-family="lt_regular"  y="15">return</text><text text-decoration="none" x="58" fill="#4b4b4b" font-size="10pt" font-family="noto_regular"  y="15"></text></g></g><g id="Sbv9xNbtHqr"><mask id="3ed72" x="497" y="926" width="327" height="30" maskUnits="userSpaceOnUse"><rect x="497" y="926" width="327" height="30" fill="white" /><rect x="628.5" y="928.5" width="64" height="25" fill="black" /></mask><g mask="url(#3ed72)"><path d="M 810,940 L 511,942" fill="none" stroke="#F68C27" stroke-width="2" stroke-linecap="round" stroke-linejoin="round" stroke-dasharray="3 3"/><path d="M 511,942 L 519.7270997983084,947.7021571216553 L 519.6639422726623,936.2023305522259 Z" fill="rgb(246,140,39)" stroke="#F68C27" stroke-width="2" stroke-linecap="round" stroke-linejoin="round"/></g><g transform="translate(631.5, 931.5)" width="58" height="19"><text text-decoration="none" x="0" fill="#F68C27" font-size="10pt" font-family="lt_regular"  y="15">17:&#160;</text><text text-decoration="none" x="22" fill="#F68C27" font-size="10pt" font-family="lt_regular"  y="15">return</text><text text-decoration="none" x="58" fill="#4b4b4b" font-size="10pt" font-family="noto_regular"  y="15"></text></g></g><g id="f43tZj030a3"><mask id="1569e" x="506" y="1005" width="168" height="29" maskUnits="userSpaceOnUse"><rect x="506" y="1005" width="168" height="29" fill="white" /><rect x="549.5" y="998" width="81" height="43" fill="black" /></mask><g mask="url(#1569e)"><path d="M 660,1019 L 520,1020" fill="none" stroke="#7E7E7E" stroke-width="2" stroke-linecap="round" stroke-linejoin="round"/><path d="M 520,1020 L 528.7365007354105,1025.687743105121 L 528.6543599736684,1014.1880364612426 Z" fill="rgb(126,126,126)" stroke="#7E7E7E" stroke-width="2" stroke-linecap="round" stroke-linejoin="round"/></g><g transform="translate(552.5, 1001)" width="75" height="37"><text text-decoration="none" x="11.5" fill="rgb(75, 75, 75)" font-size="10pt" font-family="lt_regular"  y="14">18:&#160;</text><text text-decoration="none" x="33.5" fill="rgb(75, 75, 75)" font-size="10pt" font-family="lt_regular"  y="14">Mark</text><text text-decoration="none" x="63.5" fill="rgb(75, 75, 75)" font-size="10pt" font-family="lt_regular"  y="14"></text><text text-decoration="none" x="1.5" fill="rgb(75, 75, 75)" font-size="10pt" font-family="lt_regular"  y="33">Attendance()</text><text text-decoration="none" x="73.5" fill="#4b4b4b" font-size="10pt" font-family="noto_regular"  y="33"></text></g></g><g id="muDGmyDjmPw"><mask id="9719a" x="506" y="1066" width="168" height="28" maskUnits="userSpaceOnUse"><rect x="506" y="1066" width="168" height="28" fill="white" /><rect x="584.15625" y="1058.5" width="67" height="43" fill="black" /></mask><g mask="url(#9719a)"><path d="M 660,1080 L 520,1080" fill="none" stroke="#F68C27" stroke-width="2" stroke-linecap="round" stroke-linejoin="round" stroke-dasharray="3 3"/><path d="M 660,1080 L 651.3205371874824,1074.2255916306688 L 651.2882271056678,1085.7255462418234 Z" fill="rgb(246,140,39)" stroke="#F68C27" stroke-width="2" stroke-linecap="round" stroke-linejoin="round"/></g><g transform="translate(587.15625, 1061.5)" width="61" height="37"><text text-decoration="none" x="0" fill="#F68C27" font-size="10pt" font-family="lt_regular"  y="14">19:&#160;</text><text text-decoration="none" x="22" fill="#F68C27" font-size="10pt" font-family="lt_regular"  y="14">return&#160;</text><text text-decoration="none" x="61" fill="#F68C27" font-size="10pt" font-family="lt_regular"  y="14"></text><text text-decoration="none" x="15.5" fill="#F68C27" font-size="10pt" font-family="lt_regular"  y="33">value</text><text text-decoration="none" x="45.5" fill="#4b4b4b" font-size="10pt" font-family="noto_regular"  y="33"></text></g></g><g id="LUCnPPWqNQT"><mask id="d9a8c" x="506" y="1135" width="166" height="29" maskUnits="userSpaceOnUse"><rect x="506" y="1135" width="166" height="29" fill="white" /><rect x="534.8935291345441" y="1128.0655763724321" width="108" height="43" fill="black" /></mask><g mask="url(#d9a8c)"><path d="M 658,1149 L 598.8280317572508,1149.2555298179811 Q 598.1059972772819,1149.258647871085 589,1150 Q 579,1150 578.828125,1150 L 520,1150" fill="none" stroke="#7E7E7E" stroke-width="2" stroke-linecap="round" stroke-linejoin="round"/><path d="M 520,1150 L 528.695652173913,1155.75 L 528.695652173913,1144.25 Z" fill="rgb(126,126,126)" stroke="#7E7E7E" stroke-width="2" stroke-linecap="round" stroke-linejoin="round"/></g><g transform="translate(537.8935291345441, 1131.0655763724321)" width="102" height="37"><text text-decoration="none" x="0.5" fill="rgb(75, 75, 75)" font-size="10pt" font-family="lt_regular"  y="14">20:&#160;</text><text text-decoration="none" x="22.5" fill="rgb(75, 75, 75)" font-size="10pt" font-family="lt_regular"  y="14">PrepareRepor</text><text text-decoration="none" x="101.5" fill="rgb(75, 75, 75)" font-size="10pt" font-family="lt_regular"  y="14"></text><text text-decoration="none" x="32" fill="rgb(75, 75, 75)" font-size="10pt" font-family="lt_regular"  y="33">tCard()</text><text text-decoration="none" x="70" fill="#4b4b4b" font-size="10pt" font-family="noto_regular"  y="33"></text></g></g><g id="w8n7Bkh05aN"><mask id="f6df6" x="506" y="1196" width="166" height="30" maskUnits="userSpaceOnUse"><rect x="506" y="1196" width="166" height="30" fill="white" /><rect x="556.9846030260719" y="1198.5715506837519" width="64" height="25" fill="black" /></mask><g mask="url(#f6df6)"><path d="M 520,1210 L 578.828125,1210 Q 579.8427880059409,1210 589,1211 Q 598.0110888347845,1211.8254355990152 598.8280826613844,1211.8278130056922 L 658,1212" fill="none" stroke="#F68C27" stroke-width="2" stroke-linecap="round" stroke-linejoin="round" stroke-dasharray="3 3"/><path d="M 658,1212 L 649.304347826087,1206.25 L 649.304347826087,1217.75 Z" fill="rgb(246,140,39)" stroke="#F68C27" stroke-width="2" stroke-linecap="round" stroke-linejoin="round"/></g><g transform="translate(559.9846030260719, 1201.5715506837519)" width="58" height="19"><text text-decoration="none" x="0" fill="#F68C27" font-size="10pt" font-family="lt_regular"  y="15">21:&#160;</text><text text-decoration="none" x="22" fill="#F68C27" font-size="10pt" font-family="lt_regular"  y="15">return</text><text text-decoration="none" x="58" fill="#4b4b4b" font-size="10pt" font-family="noto_regular"  y="15"></text></g></g></svg>